<?xml version="1.0" standalone="no"?>
<!DOCTYPE svg PUBLIC "-//W3C//DTD SVG 20010904//EN"
 "http://www.w3.org/TR/2001/REC-SVG-20010904/DTD/svg10.dtd">
<svg version="1.0" xmlns="http://www.w3.org/2000/svg"
 width="320.000000pt" height="314.000000pt" viewBox="0 0 320.000000 314.000000"
 preserveAspectRatio="xMidYMid meet">

<g transform="translate(0.000000,314.000000) scale(0.100000,-0.100000)"
fill="#000000" stroke="none">
<path d="M1580 3090 c-12 -28 -67 -85 -120 -123 -24 -17 -24 -17 9 0 18 10 56
43 85 75 l51 56 33 -36 33 -37 -33 47 c-18 26 -36 47 -39 47 -4 1 -12 -12 -19
-29z"/>
<path d="M1693 3013 c18 -20 145 -93 163 -93 5 0 -25 19 -66 41 -41 22 -84 48
-95 57 -20 17 -20 17 -2 -5z"/>
<path d="M1590 3006 c0 -8 -20 -36 -45 -63 -60 -67 -151 -113 -360 -183 -236
-78 -310 -129 -322 -221 l-5 -37 -52 5 c-91 9 -146 -33 -321 -252 -62 -77
-139 -165 -172 -196 -57 -55 -146 -109 -178 -109 -12 0 -7 -11 18 -40 65 -76
79 -143 87 -420 9 -300 24 -353 108 -396 20 -10 39 -20 41 -21 2 -1 -6 -14
-18 -29 -31 -40 -28 -113 8 -190 16 -33 71 -125 123 -205 52 -79 109 -169 126
-199 38 -69 65 -161 60 -206 -5 -39 1 -41 45 -17 24 13 54 17 122 16 92 -2
140 -13 390 -92 171 -54 263 -51 324 10 l30 30 35 -38 35 -38 98 1 c85 1 120
8 258 48 262 77 358 87 470 51 19 -6 20 -1 21 67 0 90 24 147 120 286 149 214
173 252 193 306 26 71 27 111 1 159 -19 35 -19 38 -3 43 108 32 126 86 143
424 13 257 30 336 96 428 16 21 15 22 -8 22 -34 0 -115 43 -170 91 -26 22 -99
109 -161 192 -173 230 -230 276 -332 265 l-45 -6 0 35 c0 92 -78 149 -315 233
-189 66 -336 142 -385 197 -22 25 -40 50 -40 54 0 5 -4 9 -10 9 -5 0 -10 -6
-10 -14z m177 -149 c39 -20 130 -59 204 -86 307 -112 379 -164 366 -262 -5
-37 -4 -37 20 -28 37 14 91 11 130 -7 52 -25 111 -90 237 -258 62 -83 128
-164 145 -179 44 -39 122 -87 140 -87 40 -1 42 -15 12 -76 -39 -79 -50 -143
-61 -373 -5 -107 -12 -210 -16 -230 -17 -106 -54 -164 -114 -182 -22 -7 -40
-14 -40 -17 0 -2 9 -15 20 -29 52 -66 31 -153 -71 -303 -159 -231 -182 -267
-206 -320 -15 -33 -27 -82 -30 -123 l-6 -67 -36 7 c-20 5 -72 7 -116 6 -77 -2
-108 -8 -405 -87 -143 -38 -207 -43 -262 -19 -31 14 -48 30 -57 52 l-13 31
-38 -39 c-74 -76 -147 -75 -410 9 -223 71 -313 83 -406 55 -27 -8 -50 -15 -51
-15 -2 0 -3 15 -3 33 0 78 -52 187 -181 382 -159 241 -186 322 -134 399 l24
36 -33 14 c-18 8 -45 27 -59 42 -50 53 -59 100 -67 354 -8 264 -17 314 -65
394 l-33 56 45 20 c84 37 167 119 322 319 150 193 238 249 320 206 l29 -14 4
49 c10 102 78 149 348 240 197 66 279 108 337 175 l45 51 48 -46 c26 -25 79
-63 117 -83z"/>
<path d="M1587 2743 c-21 -39 -90 -101 -136 -120 -20 -9 -102 -40 -183 -69
-82 -28 -168 -64 -194 -79 -48 -28 -84 -76 -84 -111 0 -29 -9 -35 -33 -23 -30
16 -90 -5 -139 -49 -23 -20 -77 -82 -120 -137 -140 -177 -210 -240 -301 -269
-16 -5 -15 -9 12 -43 52 -67 63 -118 70 -343 8 -235 21 -283 84 -320 l34 -20
-19 -40 c-19 -37 -19 -42 -4 -92 9 -31 56 -116 112 -203 122 -188 156 -259
158 -329 l1 -52 50 19 c71 27 149 18 325 -40 125 -40 157 -47 232 -47 81 -1
88 1 115 27 l29 27 24 -25 c54 -58 118 -55 370 15 170 47 267 58 325 37 l40
-14 0 61 c0 68 34 151 99 241 90 125 139 200 157 238 23 51 24 108 4 147 -14
27 -14 30 1 30 9 0 31 15 49 33 43 43 54 96 65 317 10 190 27 274 66 333 26
40 26 39 -30 52 -68 15 -137 84 -274 271 -93 128 -173 184 -243 170 -26 -5
-29 -3 -29 22 0 40 -33 87 -82 115 -24 14 -97 46 -163 71 -259 100 -314 132
-355 199 l-18 29 -15 -29z m80 -163 l38 -1 -28 -24 c-24 -21 -27 -30 -21 -60
7 -40 4 -42 -31 -19 -23 15 -27 15 -51 -1 -32 -21 -39 -14 -26 25 10 27 8 32
-13 46 -34 22 -31 34 8 34 28 0 35 5 45 33 l13 32 14 -32 c12 -29 19 -33 52
-33z m-28 -193 l24 -57 -22 -24 c-13 -13 -28 -23 -34 -22 -28 6 -47 19 -47 31
0 7 -5 15 -11 17 -9 3 -9 9 -1 23 6 11 19 37 28 58 9 21 22 36 28 34 6 -2 22
-29 35 -60z m-599 -381 c0 -8 -4 -18 -10 -21 -5 -3 -11 -18 -11 -33 -1 -21 -2
-22 -6 -7 -3 11 -9 24 -14 30 -19 19 -10 45 16 45 15 0 25 -6 25 -14z m441
-42 c-5 -22 -9 -30 -10 -17 -1 12 -5 25 -11 28 -16 10 -11 33 8 37 23 5 24 -1
13 -48z m68 47 c11 -7 12 -14 0 -39 l-13 -30 -13 26 c-21 39 -6 63 26 43z
m133 -32 c-3 -38 -22 -66 -22 -33 0 11 -5 25 -12 32 -8 8 -8 15 2 27 20 24 35
12 32 -26z m56 33 c9 -6 10 -19 3 -48 -5 -22 -9 -30 -10 -17 -1 12 -5 25 -11
28 -12 7 -14 45 -2 45 4 0 13 -4 20 -8z m472 -6 c0 -20 -29 -84 -30 -65 0 9
-3 31 -6 48 -6 27 -4 31 15 31 11 0 21 -6 21 -14z m-1244 -18 c-3 -13 -6 -31
-6 -40 0 -10 -4 -18 -9 -18 -13 0 -19 58 -7 70 17 17 29 11 22 -12z m124 -24
c0 -19 -4 -34 -10 -34 -5 0 -10 8 -10 18 0 9 -3 27 -6 40 -5 18 -3 21 10 16
10 -4 16 -18 16 -40z m74 34 c-4 -6 -11 -25 -15 -42 -7 -30 -7 -30 -8 -4 -1
14 -6 28 -13 30 -18 6 0 28 23 28 13 0 18 -4 13 -12z m52 4 c13 -8 6 -75 -7
-67 -4 3 -6 12 -3 19 3 8 1 17 -5 21 -12 7 -15 35 -3 35 4 0 12 -4 18 -8z
m138 -10 c-1 -6 -2 -24 -3 -39 l-2 -28 -14 34 c-19 43 -19 53 3 49 9 -2 17 -9
16 -16z m520 -19 c-8 -44 -14 -55 -14 -27 0 11 -5 25 -11 31 -14 14 -3 33 17
33 12 0 13 -8 8 -37z m137 24 c-1 -4 -4 -21 -8 -38 l-6 -31 -14 33 c-11 26
-11 34 -1 41 15 9 30 6 29 -5z m61 -12 c-6 -47 -22 -74 -22 -39 0 10 -3 30 -7
43 -5 19 -2 22 13 19 12 -2 18 -11 16 -23z m67 -7 c-8 -14 -14 -17 -22 -9 -7
7 -6 15 3 25 17 22 32 9 19 -16z m119 20 c11 -14 5 -68 -8 -68 -5 0 -6 8 -3
19 3 10 0 22 -6 25 -13 8 -15 36 -2 36 5 0 13 -6 19 -12z m-958 -7 c0 -6 -4
-13 -10 -16 -5 -3 -10 -16 -11 -28 -1 -18 -2 -17 -9 7 -5 16 -7 33 -4 38 7 11
34 10 34 -1z m313 -23 c-7 -40 -13 -49 -13 -20 0 11 -4 24 -10 27 -17 10 -11
25 10 25 17 0 19 -5 13 -32z m195 -4 c-13 -28 -13 -28 -22 8 -5 22 -3 25 13
21 17 -4 18 -9 9 -29z m125 30 c9 -3 12 -14 9 -30 -5 -26 -22 -43 -22 -22 0 7
-3 23 -6 36 -7 23 -4 25 19 16z m-511 -16 c-5 -7 -12 -22 -15 -33 -5 -20 -5
-20 -6 1 0 11 -6 25 -13 32 -9 9 -6 12 16 12 22 0 26 -3 18 -12z m788 -94 c0
-13 -5 -24 -12 -24 -30 0 6 -13 39 -14 32 -2 39 -5 42 -26 4 -29 17 -40 48
-40 12 0 24 -4 27 -9 9 -14 -4 -41 -19 -41 -7 0 -15 -6 -18 -14 -7 -17 -78 -7
-85 12 -2 6 1 12 7 12 6 0 11 7 11 15 0 10 -10 14 -37 12 l-38 -2 3 37 4 38
-27 -14 c-38 -20 -51 -12 -52 32 -1 41 11 54 43 46 12 -3 25 -1 28 5 11 17 36
0 36 -25z m-1150 -24 c-12 -22 -77 -56 -88 -46 -9 9 31 48 63 62 36 15 40 12
25 -16z m453 3 c5 -27 -9 -47 -25 -37 -4 3 -8 18 -8 35 0 37 26 39 33 2z m205
-5 c-3 -35 -28 -52 -28 -20 0 28 10 52 22 52 5 0 8 -14 6 -32z m-758 -6 c0
-16 -6 -37 -14 -48 -14 -18 -15 -18 -21 -1 -8 19 12 77 26 77 5 0 9 -13 9 -28z
m334 -64 c-36 -71 -43 -165 -18 -244 25 -84 113 -170 204 -202 36 -12 73 -22
83 -22 14 0 17 -10 18 -52 1 -29 1 -57 0 -62 -1 -4 3 -13 8 -20 27 -33 -121
-6 -206 38 -63 32 -144 113 -172 171 -50 106 -50 208 0 311 23 49 91 134 106
134 2 0 -9 -24 -23 -52z m659 -13 c54 -68 71 -121 72 -220 0 -82 -3 -96 -33
-157 -52 -105 -166 -190 -290 -217 -77 -16 -82 -15 -82 19 0 17 -5 30 -12 31
-10 0 -10 2 0 6 18 7 15 23 -5 24 -17 1 -17 2 0 6 9 2 17 9 17 14 0 5 -8 9
-17 10 -14 0 -15 2 -3 6 8 3 17 9 20 12 3 4 28 12 55 19 226 58 329 265 232
463 -22 45 -22 46 -2 33 11 -7 33 -29 48 -49z m-1057 -11 c-4 -13 -11 -24 -16
-24 -14 0 -12 47 2 73 l13 22 3 -24 c2 -12 1 -34 -2 -47z m122 24 c-7 -20 -56
-34 -69 -21 -18 18 -1 33 37 33 24 0 34 -4 32 -12z m502 -12 c0 -3 -4 -8 -10
-11 -5 -3 -10 -1 -10 4 0 6 5 11 10 11 6 0 10 -2 10 -4z m187 -2 c-3 -3 -12
-4 -19 -1 -8 3 -5 6 6 6 11 1 17 -2 13 -5z m-859 -46 c-2 -24 -7 -42 -13 -41
-13 3 -18 29 -11 59 11 40 27 27 24 -18z m112 13 c0 -11 -25 -21 -51 -21 -19
0 -25 11 -12 23 10 10 63 8 63 -2z m578 -18 c3 -21 9 -23 58 -23 49 0 55 3 64
25 6 16 17 25 31 25 19 0 20 -4 15 -41 -7 -47 -13 -59 -29 -59 -7 0 -19 -9
-27 -20 -10 -14 -26 -20 -50 -20 -24 0 -39 6 -48 20 -7 11 -21 20 -31 20 -20
0 -31 25 -31 73 0 24 4 28 23 25 14 -2 23 -11 25 -25z m851 -19 c25 -12 31
-21 28 -36 -6 -20 17 -50 46 -61 19 -7 23 -32 7 -42 -16 -10 -12 -20 16 -48
33 -33 28 -62 -9 -62 -15 1 -27 -3 -27 -7 0 -4 6 -8 14 -8 8 0 18 -10 22 -22
4 -13 14 -28 22 -34 20 -15 9 -42 -23 -54 -29 -11 -32 -35 -9 -61 22 -24 11
-49 -20 -49 -33 0 -51 -32 -35 -58 7 -11 9 -27 6 -36 -8 -20 -46 -21 -53 -1
-8 21 -34 19 -34 -2 0 -14 2 -15 9 -4 6 9 11 10 15 2 4 -6 0 -14 -8 -17 -19
-7 -21 -35 -5 -51 7 -7 9 -19 6 -27 -8 -21 -67 -22 -67 -1 0 8 -5 15 -12 15
-6 0 -9 -3 -5 -6 3 -3 2 -17 -4 -30 -6 -17 -5 -31 3 -44 10 -16 10 -23 -4 -36
-19 -19 -68 -12 -68 10 0 8 -8 17 -17 21 -15 5 -16 4 -5 -6 15 -16 16 -39 1
-39 -5 0 -7 5 -4 10 3 6 1 10 -4 10 -6 0 -11 -5 -11 -11 0 -8 -4 -8 -14 1 -17
13 -6 57 13 52 14 -3 14 11 0 25 -6 6 -9 23 -7 39 3 28 5 29 54 29 51 0 51 0
36 22 -22 34 -10 51 37 51 56 1 64 8 45 37 -17 27 -12 57 8 54 7 -2 24 1 37 5
14 5 27 4 34 -3 13 -13 27 -14 27 -2 0 5 -12 12 -26 15 -15 4 -24 10 -21 13 3
3 0 12 -8 20 -17 17 -20 42 -5 44 14 2 22 4 48 15 l23 10 -26 24 c-30 28 -33
50 -6 50 27 0 36 31 15 47 -10 7 -21 13 -26 13 -17 0 -7 32 18 55 15 14 22 25
16 25 -6 0 -14 -5 -18 -11 -5 -8 -10 -6 -16 5 -5 9 -15 16 -22 16 -17 0 -29
27 -16 35 6 3 14 14 20 25 8 15 7 17 -10 13 -29 -8 -70 5 -70 22 0 8 4 15 9
15 5 0 11 9 14 20 6 24 23 25 66 4z m-1579 -51 c0 -35 -14 -52 -24 -27 -8 21
-8 69 1 77 11 11 23 -15 23 -50z m114 38 c4 -5 -7 -15 -23 -22 -20 -9 -27 -17
-20 -25 11 -13 -16 -41 -46 -46 -28 -4 -26 24 3 37 23 10 30 25 10 25 -6 0 -3
9 7 20 19 21 59 27 69 11z m-144 -115 c0 -27 1 -28 18 -14 20 18 62 33 62 22
0 -12 -42 -54 -55 -54 -28 0 -55 41 -55 83 1 41 1 42 15 17 8 -14 14 -38 15
-54z m-16 -62 l7 -25 26 21 c47 37 61 17 18 -26 -23 -23 -26 -24 -49 -9 -22
15 -46 61 -46 88 0 18 38 -24 44 -49z m-19 -72 c9 -32 25 -43 25 -18 0 12 40
46 55 46 13 0 3 -31 -19 -57 -21 -24 -26 -26 -50 -15 -27 12 -66 66 -66 91 0
25 44 -13 55 -47z m865 -2 c-8 -5 -19 -10 -25 -10 -5 0 -3 5 5 10 8 5 20 10
25 10 6 0 3 -5 -5 -10z m5 -30 c-3 -5 -14 -10 -23 -10 -15 0 -15 2 -2 10 20
13 33 13 25 0z m-869 -47 l21 -32 11 24 c14 30 52 53 52 31 0 -8 -4 -26 -10
-40 -8 -21 -16 -26 -43 -26 -35 0 -54 15 -77 58 -10 21 -9 23 6 20 10 -2 28
-17 40 -35z m864 17 c-20 -13 -33 -13 -25 0 3 6 14 10 23 10 15 0 15 -2 2 -10z
m5 -30 c-3 -5 -13 -10 -21 -10 -8 0 -12 5 -9 10 3 6 13 10 21 10 8 0 12 -4 9
-10z m-785 -90 c-18 -33 -62 -26 -100 16 -17 20 -29 38 -26 41 8 8 43 -16 65
-43 14 -17 21 -21 21 -12 0 9 10 28 23 44 l22 29 3 -27 c2 -15 -2 -36 -8 -48z
m1445 41 c-6 -5 -32 -16 -60 -24 -77 -23 -152 -52 -167 -64 -7 -6 -32 -14 -55
-18 -41 -6 -56 -19 -32 -27 6 -2 -12 -16 -41 -32 -28 -15 -48 -32 -43 -37 10
-10 186 -69 206 -69 15 0 27 -45 24 -90 -2 -21 -7 -25 -32 -22 -17 2 -75 21
-129 43 -153 62 -207 56 -274 -30 -22 -27 -42 -47 -46 -44 -3 4 -6 -1 -6 -10
0 -10 -8 -17 -20 -17 -26 0 -26 30 -1 37 12 3 17 11 14 19 -3 7 5 27 17 44 12
17 19 34 15 38 -4 4 -13 -2 -21 -12 -13 -19 -14 -19 -14 -2 0 20 40 70 118
149 79 81 222 140 401 166 79 12 157 13 146 2z m-1419 -107 c-5 -19 -13 -24
-40 -24 -36 0 -86 32 -86 56 0 12 4 13 23 3 12 -6 32 -21 45 -32 21 -20 22
-20 22 -1 0 11 8 31 18 44 l17 25 3 -24 c2 -12 1 -34 -2 -47z m44 -34 c0 -16
-7 -36 -17 -45 -15 -16 -17 -16 -26 0 -7 12 -5 28 7 52 18 39 36 36 36 -7z
m-82 -20 c17 -11 32 -24 32 -30 0 -20 -41 -9 -72 20 -28 25 -30 29 -13 30 11
0 35 -9 53 -20z m126 -16 c16 -42 -7 -96 -34 -79 -13 8 -13 51 0 76 13 23 26
24 34 3z m560 -27 c13 -9 41 -37 61 -61 33 -40 36 -50 31 -81 -4 -20 -11 -33
-16 -30 -4 3 -6 -4 -3 -15 9 -33 -9 -23 -55 30 -64 75 -135 84 -240 31 -48
-24 -172 -64 -178 -58 -10 10 -13 53 -6 81 7 26 19 32 152 77 154 52 206 57
254 26z m-623 -33 c28 -25 23 -37 -11 -30 -33 6 -79 35 -80 50 0 14 71 -2 91
-20z m115 -8 c9 -36 1 -71 -16 -71 -8 0 -16 11 -18 24 -5 30 6 71 18 71 5 0
12 -11 16 -24z m68 -82 c1 -29 -3 -39 -16 -42 -23 -4 -33 35 -18 73 14 37 32
21 34 -31z m-139 32 c40 -17 46 -36 13 -36 -22 0 -88 34 -88 45 0 10 41 5 75
-9z m83 -62 c29 -20 28 -34 -3 -34 -31 0 -96 30 -89 42 9 14 68 9 92 -8z m192
-108 c0 -34 -10 -38 -69 -25 -87 18 -77 49 17 49 49 0 52 -2 52 -24z m920 14
c13 -9 13 -12 -3 -24 -20 -15 -93 -29 -108 -21 -5 4 -9 17 -9 31 0 22 3 24 53
24 28 0 59 -5 67 -10z m-539 -42 c0 -10 2 -10 6 0 7 17 32 15 40 -4 5 -13 7
-13 14 -2 9 14 67 13 83 -2 5 -5 14 -6 21 -4 7 3 20 -5 29 -18 9 -12 16 -17
16 -10 0 22 30 12 31 -10 1 -17 2 -19 6 -5 5 20 23 23 24 5 0 -10 2 -10 6 0 2
6 10 9 16 5 20 -12 39 -15 126 -17 81 -1 85 -2 91 -26 9 -32 -5 -70 -24 -70
-9 0 -20 14 -25 33 l-9 32 -1 -34 c-1 -29 -3 -32 -16 -21 -10 8 -15 9 -15 1 0
-15 -60 -7 -71 10 -7 11 -9 12 -9 0 0 -9 -8 -11 -27 -6 -16 4 -39 9 -52 11
-14 3 -29 8 -35 12 -6 3 -15 7 -21 8 -63 10 -128 28 -139 40 -11 10 -15 11
-18 2 -3 -7 -19 -13 -37 -14 -41 -2 -61 31 -43 71 12 26 31 34 33 13z m-64
-18 c-3 -11 -1 -23 4 -26 5 -3 9 -14 9 -25 0 -21 -35 -40 -57 -32 -7 3 -13 1
-13 -4 0 -5 -9 -9 -19 -10 -15 -1 -21 6 -24 30 -4 32 -4 32 -5 -4 -2 -35 -5
-37 -46 -48 -64 -16 -86 -14 -87 7 0 12 -3 10 -10 -8 -8 -20 -12 -22 -19 -10
-7 10 -10 11 -10 3 0 -7 -11 -13 -25 -13 -14 0 -25 6 -25 13 0 7 -3 8 -8 2 -4
-5 -17 -11 -29 -12 -28 -3 -45 26 -37 65 5 24 11 29 35 30 16 0 31 -3 34 -8 3
-5 17 -4 32 3 21 9 27 9 31 -2 3 -8 7 -9 11 -3 3 6 25 13 49 17 23 3 61 13 83
20 23 8 45 13 49 10 5 -3 11 -1 15 5 9 15 25 2 25 -20 0 -10 4 -21 9 -24 5 -4
7 3 4 14 -7 25 3 50 18 50 6 0 9 -9 6 -20z m-144 -242 c6 -19 -3 -38 -19 -38
-8 0 -14 -7 -14 -15 0 -8 -7 -15 -15 -15 -11 0 -15 11 -15 40 0 38 2 40 29 40
16 0 31 -6 34 -12z m96 -19 c15 -44 16 -44 -29 -45 -45 -2 -44 -3 -28 43 15
43 42 43 57 2z m74 10 c-4 -14 0 -25 11 -31 22 -12 11 -28 -20 -28 -21 0 -24
4 -24 40 0 33 3 40 19 40 15 0 18 -5 14 -21z m137 2 c14 -26 3 -50 -26 -57
-30 -8 -54 11 -54 41 0 29 8 35 41 35 18 0 32 -7 39 -19z m100 -6 c0 -15 -6
-25 -14 -25 -8 0 -16 -7 -20 -15 -11 -29 -26 -15 -26 25 0 38 2 40 30 40 25 0
30 -4 30 -25z m116 0 c8 -31 -10 -55 -42 -55 -27 0 -48 32 -39 60 5 15 15 20
40 20 29 0 36 -4 41 -25z"/>
<path d="M2150 1280 c-23 -7 -23 -8 -3 -9 12 -1 25 4 28 9 3 6 5 10 3 9 -2 -1
-14 -5 -28 -9z"/>
<path d="M2098 1263 c7 -3 16 -2 19 1 4 3 -2 6 -13 5 -11 0 -14 -3 -6 -6z"/>
<path d="M1749 1093 c-13 -16 -12 -17 4 -4 16 13 21 21 13 21 -2 0 -10 -8 -17
-17z"/>
<path d="M1736 1031 c-3 -4 6 -6 19 -3 14 2 25 6 25 8 0 8 -39 4 -44 -5z"/>
<path d="M1808 1033 c7 -3 16 -2 19 1 4 3 -2 6 -13 5 -11 0 -14 -3 -6 -6z"/>
<path d="M1860 1022 c8 -5 26 -13 40 -16 17 -5 20 -4 10 2 -8 5 -26 13 -40 16
-17 5 -20 4 -10 -2z"/>
<path d="M1664 978 l-29 -33 33 29 c30 28 37 36 29 36 -2 0 -16 -15 -33 -32z"/>
<path d="M1970 980 c8 -5 20 -10 25 -10 6 0 3 5 -5 10 -8 5 -19 10 -25 10 -5
0 -3 -5 5 -10z"/>
<path d="M1388 1033 c7 -3 16 -2 19 1 4 3 -2 6 -13 5 -11 0 -14 -3 -6 -6z"/>
<path d="M1428 1033 c7 -3 16 -2 19 1 4 3 -2 6 -13 5 -11 0 -14 -3 -6 -6z"/>
<path d="M1475 1024 c6 -5 23 -20 40 -34 29 -24 29 -24 10 -2 -11 13 -29 28
-40 34 -11 6 -15 6 -10 2z"/>
<path d="M1564 779 c-3 -6 -1 -16 5 -22 8 -8 11 -5 11 11 0 24 -5 28 -16 11z"/>
<path d="M1600 771 c0 -25 6 -27 13 -6 4 8 2 17 -3 20 -6 4 -10 -3 -10 -14z"/>
<path d="M1682 770 c0 -14 2 -19 5 -12 2 6 2 18 0 25 -3 6 -5 1 -5 -13z"/>
<path d="M1752 750 c0 -14 2 -19 5 -12 2 6 2 18 0 25 -3 6 -5 1 -5 -13z"/>
<path d="M1721 734 c0 -11 3 -14 6 -6 3 7 2 16 -1 19 -3 4 -6 -2 -5 -13z"/>
<path d="M2062 700 c0 -14 2 -19 5 -12 2 6 2 18 0 25 -3 6 -5 1 -5 -13z"/>
<path d="M1975 701 c-3 -5 -1 -12 5 -16 5 -3 10 1 10 9 0 18 -6 21 -15 7z"/>
<path d="M1442 740 c0 -19 2 -27 5 -17 2 9 2 25 0 35 -3 9 -5 1 -5 -18z"/>
<path d="M1630 525 c0 -8 5 -15 10 -15 6 0 10 7 10 15 0 8 -4 15 -10 15 -5 0
-10 -7 -10 -15z"/>
<path d="M1847 534 c-8 -8 1 -24 14 -24 5 0 9 7 9 15 0 15 -12 20 -23 9z"/>
<path d="M1340 2910 c-8 -5 -10 -10 -5 -10 6 0 17 5 25 10 8 5 11 10 5 10 -5
0 -17 -5 -25 -10z"/>
<path d="M1167 2853 c-60 -19 -107 -37 -104 -39 5 -6 227 65 227 72 0 6 -7 5
-123 -33z"/>
<path d="M1970 2877 c8 -9 172 -68 177 -64 2 2 -32 17 -74 32 -105 38 -109 39
-103 32z"/>
<path d="M1020 2800 c-8 -5 -10 -10 -5 -10 6 0 17 5 25 10 8 5 11 10 5 10 -5
0 -17 -5 -25 -10z"/>
<path d="M955 2774 c-61 -32 -101 -64 -119 -96 -18 -30 -16 -29 20 10 21 23
64 55 94 72 30 16 51 30 45 29 -5 0 -23 -7 -40 -15z"/>
<path d="M2290 2743 c13 -10 40 -31 60 -48 l35 -29 -30 33 c-16 18 -43 39 -60
47 l-30 14 25 -17z"/>
<path d="M811 2624 c0 -11 3 -14 6 -6 3 7 2 16 -1 19 -3 4 -6 -2 -5 -13z"/>
<path d="M708 2573 c6 -2 18 -2 25 0 6 3 1 5 -13 5 -14 0 -19 -2 -12 -5z"/>
<path d="M644 2554 c-19 -15 -19 -15 1 -6 11 5 27 12 35 15 13 5 13 6 -1 6 -8
1 -24 -6 -35 -15z"/>
<path d="M795 2561 c-3 -5 -1 -12 5 -16 5 -3 10 1 10 9 0 18 -6 21 -15 7z"/>
<path d="M2463 2563 c9 -2 25 -2 35 0 9 3 1 5 -18 5 -19 0 -27 -2 -17 -5z"/>
<path d="M589 2513 l-24 -28 28 24 c25 23 32 31 24 31 -2 0 -14 -12 -28 -27z"/>
<path d="M504 2428 l-29 -33 33 29 c30 28 37 36 29 36 -2 0 -16 -15 -33 -32z"/>
<path d="M454 2368 l-19 -23 23 19 c21 18 27 26 19 26 -2 0 -12 -10 -23 -22z"/>
<path d="M2764 2327 c16 -20 30 -37 33 -37 7 0 -36 58 -49 66 -7 4 1 -9 16
-29z"/>
<path d="M400 2300 c-17 -22 -29 -40 -27 -40 3 0 20 18 37 40 17 22 29 40 27
40 -3 0 -20 -18 -37 -40z"/>
<path d="M344 2228 l-19 -23 23 19 c12 11 22 21 22 23 0 8 -8 2 -26 -19z"/>
<path d="M284 2158 c-43 -47 -69 -78 -62 -78 2 0 27 27 56 60 61 69 65 80 6
18z"/>
<path d="M2860 2196 c0 -2 8 -10 18 -17 15 -13 16 -12 3 4 -13 16 -21 21 -21
13z"/>
<path d="M2910 2135 c13 -14 26 -25 28 -25 3 0 -5 11 -18 25 -13 14 -26 25
-28 25 -3 0 5 -11 18 -25z"/>
<path d="M170 2049 c-19 -17 -53 -39 -75 -49 -22 -10 -33 -19 -24 -19 19 -1
97 48 123 77 27 31 17 27 -24 -9z"/>
<path d="M25 1970 c-3 -6 1 -7 9 -4 18 7 21 14 7 14 -6 0 -13 -4 -16 -10z"/>
<path d="M121 1784 c0 -11 3 -14 6 -6 3 7 2 16 -1 19 -3 4 -6 -2 -5 -13z"/>
<path d="M3082 1740 c0 -14 2 -19 5 -12 2 6 2 18 0 25 -3 6 -5 1 -5 -13z"/>
<path d="M138 1550 c2 -113 5 -212 6 -220 7 -31 4 337 -3 380 -3 25 -5 -47 -3
-160z"/>
<path d="M3073 1660 c0 -25 2 -35 4 -22 2 12 2 32 0 45 -2 12 -4 2 -4 -23z"/>
<path d="M3064 1495 c0 -49 1 -71 3 -48 2 23 2 64 0 90 -2 26 -3 8 -3 -42z"/>
<path d="M3053 1300 c0 -25 2 -35 4 -22 2 12 2 32 0 45 -2 12 -4 2 -4 -23z"/>
<path d="M152 1250 c0 -14 2 -19 5 -12 2 6 2 18 0 25 -3 6 -5 1 -5 -13z"/>
<path d="M3041 1224 c0 -11 3 -14 6 -6 3 7 2 16 -1 19 -3 4 -6 -2 -5 -13z"/>
<path d="M161 1204 c0 -11 3 -14 6 -6 3 7 2 16 -1 19 -3 4 -6 -2 -5 -13z"/>
<path d="M274 995 c-9 -13 -14 -28 -12 -33 1 -5 10 6 19 24 19 40 16 44 -7 9z"/>
<path d="M2933 915 c0 -22 2 -30 4 -17 2 12 2 30 0 40 -3 9 -5 -1 -4 -23z"/>
<path d="M261 884 c0 -11 3 -14 6 -6 3 7 2 16 -1 19 -3 4 -6 -2 -5 -13z"/>
<path d="M2921 854 c0 -11 3 -14 6 -6 3 7 2 16 -1 19 -3 4 -6 -2 -5 -13z"/>
<path d="M280 826 c0 -11 40 -86 45 -86 3 0 -4 19 -16 43 -23 45 -29 54 -29
43z"/>
<path d="M2906 815 c-9 -26 -7 -32 5 -12 6 10 9 21 6 23 -2 3 -7 -2 -11 -11z"/>
<path d="M425 583 c15 -24 30 -43 32 -43 7 0 -31 61 -46 73 -8 7 -2 -7 14 -30z"/>
<path d="M2749 568 c-17 -24 -18 -29 -6 -19 18 14 42 51 33 51 -3 0 -15 -15
-27 -32z"/>
<path d="M553 369 c29 -58 54 -105 56 -103 5 5 -73 164 -92 189 -9 11 7 -28
36 -86z"/>
<path d="M2613 354 c-14 -30 -23 -57 -21 -59 2 -2 16 23 30 55 14 33 24 60 22
60 -3 0 -17 -25 -31 -56z"/>
<path d="M2581 264 c0 -11 3 -14 6 -6 3 7 2 16 -1 19 -3 4 -6 -2 -5 -13z"/>
<path d="M611 234 c0 -11 3 -14 6 -6 3 7 2 16 -1 19 -3 4 -6 -2 -5 -13z"/>
<path d="M2570 186 c0 -33 -5 -56 -12 -58 -7 -3 -6 -7 5 -11 15 -6 17 2 17 58
0 36 -2 65 -5 65 -3 0 -5 -24 -5 -54z"/>
<path d="M622 163 c-2 -44 1 -51 14 -46 9 3 11 8 6 12 -6 3 -12 24 -15 46 -3
36 -4 35 -5 -12z"/>
<path d="M823 153 c9 -2 23 -2 30 0 6 3 -1 5 -18 5 -16 0 -22 -2 -12 -5z"/>
<path d="M888 143 c7 -3 16 -2 19 1 4 3 -2 6 -13 5 -11 0 -14 -3 -6 -6z"/>
<path d="M2403 143 c15 -2 39 -2 55 0 15 2 2 4 -28 4 -30 0 -43 -2 -27 -4z"/>
<path d="M2308 133 c6 -2 18 -2 25 0 6 3 1 5 -13 5 -14 0 -19 -2 -12 -5z"/>
<path d="M1595 110 c-3 -5 -1 -10 4 -10 6 0 11 5 11 10 0 6 -2 10 -4 10 -3 0
-8 -4 -11 -10z"/>
</g>
</svg>
