<?xml version="1.0" standalone="no"?>
<!DOCTYPE svg PUBLIC "-//W3C//DTD SVG 20010904//EN"
 "http://www.w3.org/TR/2001/REC-SVG-20010904/DTD/svg10.dtd">
<svg version="1.0" xmlns="http://www.w3.org/2000/svg"
 width="1108.000000pt" height="1094.000000pt" viewBox="0 0 1108.000000 1094.000000"
 preserveAspectRatio="xMidYMid meet">

<g transform="translate(0.000000,1094.000000) scale(0.100000,-0.100000)"
fill="#000000" stroke="none">
<path d="M5396 10420 c-503 -106 -1210 -456 -2046 -1013 -743 -495 -1406
-1027 -1958 -1572 -426 -419 -697 -753 -837 -1033 l-47 -93 16 -167 c145
-1488 1047 -3971 1869 -5147 148 -212 380 -475 437 -497 60 -23 269 -83 430
-123 521 -131 1062 -211 1740 -257 244 -16 1087 -16 1330 0 849 58 1503 188
1983 394 134 58 128 52 274 263 362 522 772 1309 1119 2152 369 898 688 1915
818 2613 54 288 66 408 66 644 l0 212 -68 100 c-247 363 -607 772 -1048 1189
-1179 1115 -2790 2143 -3660 2335 -117 26 -295 26 -418 0z m325 -206 c647
-122 1857 -827 2939 -1710 696 -568 1313 -1199 1648 -1687 l72 -105 0 -104
c-1 -499 -238 -1468 -617 -2518 -397 -1100 -906 -2143 -1371 -2810 -84 -121
-90 -126 -157 -159 -242 -119 -733 -245 -1205 -310 -508 -70 -993 -97 -1540
-87 -918 16 -1728 128 -2429 333 -144 43 -152 48 -285 204 -495 579 -1092
1811 -1541 3179 -257 786 -449 1615 -493 2133 l-8 98 38 71 c301 554 1232
1444 2333 2228 966 688 1860 1153 2395 1245 102 18 125 17 221 -1z"/>
<path d="M5430 9022 c0 -5 15 -15 33 -23 l32 -14 -3 -190 c-2 -115 -7 -194
-14 -202 -6 -7 -21 -13 -34 -13 -14 0 -24 -6 -24 -14 0 -9 25 -15 92 -20 138
-9 158 -8 158 9 0 8 -8 15 -18 15 -34 0 -42 21 -42 107 0 66 3 83 15 83 8 0
48 -52 90 -115 l76 -115 90 0 c87 0 117 13 63 26 -18 5 -49 38 -100 107 -41
55 -74 104 -74 108 0 4 10 11 23 15 103 32 126 163 36 210 -49 25 -399 48
-399 26z m290 -51 c20 -15 26 -28 28 -70 3 -46 0 -55 -27 -81 -22 -22 -39 -30
-65 -30 l-36 0 0 98 c0 54 3 102 7 106 11 10 65 -3 93 -23z"/>
<path d="M4915 8979 c-99 -15 -181 -28 -183 -28 -11 -3 13 -21 27 -21 45 0 53
-20 81 -208 15 -103 23 -187 18 -195 -4 -8 -19 -18 -33 -21 -31 -8 -33 -26 -2
-26 32 0 419 59 424 64 9 9 -9 146 -18 146 -5 0 -14 -12 -20 -27 -36 -96 -53
-110 -149 -120 -50 -5 -59 -3 -68 13 -8 16 -32 143 -32 173 0 7 23 11 55 11
53 0 57 -2 76 -35 21 -35 39 -46 39 -24 0 7 -5 52 -12 100 -8 61 -16 89 -25
89 -7 0 -13 -7 -13 -15 0 -48 -43 -85 -99 -85 -27 0 -28 2 -41 86 -13 93 -10
103 35 104 11 0 36 3 56 6 33 6 42 2 83 -36 26 -24 49 -40 52 -37 4 3 3 31 -1
62 -6 54 -7 55 -38 54 -18 -1 -113 -14 -212 -30z"/>
<path d="M6231 8933 c-51 -25 -73 -67 -68 -131 4 -63 22 -84 124 -148 40 -25
78 -54 83 -64 32 -59 -14 -115 -88 -107 -26 3 -53 14 -69 28 -28 26 -73 113
-73 142 0 25 -29 21 -35 -5 -33 -149 -33 -151 5 -143 21 5 38 1 57 -12 45 -30
81 -43 142 -50 107 -11 191 50 191 140 0 62 -24 94 -115 152 -102 66 -122 92
-103 132 19 39 55 55 101 42 44 -12 74 -51 90 -119 20 -83 43 -58 63 69 7 43
6 44 -17 38 -16 -4 -44 3 -83 23 -69 35 -150 40 -205 13z"/>
<path d="M4448 8876 c-50 -18 -88 -37 -88 -44 0 -9 9 -11 33 -7 55 11 59 -1
50 -186 l-8 -163 -105 119 c-147 167 -137 151 -103 172 17 10 28 23 26 29 -2
7 -47 -4 -126 -31 -116 -41 -141 -56 -100 -63 10 -1 28 -5 40 -7 16 -4 200
-201 323 -348 7 -8 70 11 70 21 0 4 7 102 15 217 8 116 15 218 15 228 0 10 13
31 29 47 15 16 25 33 22 37 -3 5 -45 -4 -93 -21z"/>
<path d="M6780 8799 c0 -6 11 -20 25 -31 14 -11 25 -24 25 -30 0 -22 -132
-353 -143 -360 -6 -4 -23 -4 -38 -1 -15 3 -29 1 -32 -5 -8 -11 231 -105 245
-96 5 3 -5 18 -22 33 l-32 26 67 175 c37 96 71 179 76 185 5 5 25 8 44 7 63
-5 37 16 -83 62 -128 50 -132 51 -132 35z"/>
<path d="M7191 8579 c-18 -33 -30 -63 -27 -66 3 -3 29 7 59 22 55 29 83 30
120 3 16 -12 10 -26 -74 -173 -119 -208 -114 -204 -171 -180 -12 5 -18 3 -18
-7 0 -19 219 -143 231 -131 6 6 0 18 -16 33 -14 13 -25 28 -25 34 0 21 187
341 201 344 8 1 27 -8 42 -20 24 -20 28 -31 30 -82 1 -33 7 -61 12 -63 6 -1
24 24 42 56 l32 58 -182 103 c-100 57 -191 109 -203 117 -20 13 -23 10 -53
-48z"/>
<path d="M3717 8571 c-60 -32 -108 -62 -107 -67 0 -5 19 -9 41 -9 l40 0 89
-165 c49 -91 90 -170 90 -177 0 -6 -12 -21 -27 -33 -15 -12 -23 -24 -17 -29
12 -11 234 109 234 127 0 13 -9 12 -55 -4 -5 -2 -15 0 -21 4 -16 10 -184 325
-184 344 0 9 11 23 25 32 22 15 27 37 7 35 -4 0 -56 -26 -115 -58z"/>
<path d="M3333 8346 c-48 -37 -79 -67 -74 -74 4 -7 12 -8 21 -2 36 23 68 11
118 -45 66 -74 116 -145 102 -145 -5 0 -96 20 -201 45 l-191 46 -69 -52 c-38
-28 -69 -57 -69 -65 0 -17 -1 -17 38 -3 23 8 37 7 56 -3 33 -17 216 -255 216
-280 0 -11 -8 -33 -17 -49 -9 -15 -14 -31 -11 -35 8 -8 168 113 168 128 0 9
-26 7 -63 -7 -26 -11 -68 34 -220 233 -7 9 -6 11 4 8 8 -3 112 -28 232 -57
191 -45 222 -50 243 -39 13 8 24 17 24 21 0 4 -54 78 -119 164 -66 85 -123
165 -126 176 -5 14 0 31 13 49 42 56 7 49 -75 -14z"/>
<path d="M7785 8048 c-186 -99 -234 -115 -284 -98 -7 3 -15 1 -17 -5 -2 -9 95
-96 133 -118 25 -15 26 0 4 36 -20 32 -20 35 -3 49 9 9 32 23 50 32 37 19 37
19 131 -61 l33 -29 -18 -57 c-18 -58 -29 -66 -66 -46 -12 6 -24 7 -29 2 -5 -5
33 -44 92 -92 55 -46 103 -81 106 -77 3 3 -2 21 -11 39 -16 34 -15 37 58 260
l73 226 -22 21 c-12 11 -25 20 -31 19 -5 0 -94 -45 -199 -101z m88 -66 c-15
-45 -32 -82 -38 -82 -16 1 -101 82 -90 86 6 2 42 22 80 43 39 22 71 38 72 37
1 -1 -10 -39 -24 -84z"/>
<path d="M2744 7843 c-72 -85 -76 -91 -69 -102 3 -6 18 -3 37 9 24 14 37 16
56 9 29 -11 180 -137 217 -181 51 -60 24 -152 -57 -194 -55 -28 -87 -10 -303
179 -38 33 -39 35 -26 63 14 32 15 39 2 39 -10 0 -161 -175 -161 -187 0 -11
28 -10 35 2 15 24 53 5 132 -62 135 -117 169 -138 219 -138 57 0 110 27 158
80 66 73 83 147 50 216 -9 19 -61 72 -115 120 -120 104 -136 125 -120 160 29
63 6 58 -55 -13z"/>
<path d="M8294 7726 c-80 -36 -99 -122 -51 -239 35 -87 35 -129 1 -156 -38
-30 -61 -26 -105 18 -49 48 -54 90 -22 188 9 29 14 55 10 59 -3 4 -27 -11 -53
-32 -25 -21 -56 -46 -67 -55 -22 -18 -16 -39 13 -39 11 0 20 -10 25 -27 17
-69 82 -151 147 -184 99 -50 208 12 208 118 0 24 -13 76 -30 118 -35 87 -37
114 -12 145 38 47 119 15 137 -55 7 -29 5 -47 -9 -84 -25 -64 -30 -91 -18 -91
15 0 122 93 122 106 0 7 -9 15 -19 19 -11 3 -25 21 -31 40 -38 114 -160 190
-246 151z"/>
<path d="M4035 7427 c-137 -46 -212 -128 -250 -274 -51 -195 23 -396 193 -526
127 -98 270 -160 429 -188 334 -58 553 -151 703 -299 169 -166 244 -380 257
-734 l6 -158 36 6 c20 3 42 6 49 6 15 0 17 530 2 690 -18 194 -62 308 -157
410 -129 140 -295 222 -641 316 -274 74 -399 132 -498 231 -116 115 -107 231
22 273 65 22 195 7 309 -34 55 -20 103 -36 108 -36 31 0 -40 136 -107 203 -31
31 -79 63 -125 85 -69 33 -82 36 -185 39 -73 2 -125 -2 -151 -10z"/>
<path d="M6784 7425 c-134 -29 -256 -122 -314 -239 -48 -94 -43 -100 48 -62
90 38 181 58 263 58 125 1 189 -43 189 -130 0 -135 -192 -277 -485 -357 -333
-92 -449 -135 -579 -213 -199 -119 -290 -274 -316 -531 -15 -155 -13 -691 3
-696 6 -2 28 -6 48 -9 l36 -6 6 157 c18 475 154 728 482 891 131 65 268 106
475 142 197 34 374 122 496 245 150 152 189 338 114 539 -43 114 -149 194
-287 216 -74 12 -104 12 -179 -5z"/>
<path d="M5390 7309 c-80 -61 -147 -115 -149 -121 -2 -7 23 -94 55 -195 l59
-182 211 -1 212 0 46 185 c25 101 46 193 46 202 -1 19 -298 224 -322 222 -7 0
-78 -50 -158 -110z m198 -67 l24 -72 79 0 c95 0 100 -10 29 -59 -75 -51 -75
-51 -51 -123 12 -34 21 -66 21 -70 0 -17 -26 -7 -82 32 l-57 41 -63 -46 c-89
-65 -90 -64 -54 42 l24 71 -64 46 c-35 25 -64 50 -64 56 0 6 34 10 83 10 l84
0 22 76 c13 45 27 74 33 72 7 -3 23 -37 36 -76z"/>
<path d="M3579 6953 c-22 -57 -39 -160 -39 -238 0 -245 132 -448 365 -560 113
-54 204 -76 475 -114 241 -34 361 -65 463 -118 129 -68 241 -204 302 -368 29
-77 70 -241 80 -322 7 -56 15 -62 58 -42 33 15 40 73 27 221 -23 263 -111 453
-288 619 -138 130 -261 188 -590 280 -117 33 -249 73 -293 89 -256 93 -413
253 -509 518 -12 34 -27 62 -32 62 -4 0 -13 -12 -19 -27z"/>
<path d="M7430 6918 c-91 -256 -253 -425 -494 -519 -41 -16 -171 -56 -288 -88
-118 -33 -243 -70 -278 -84 -319 -120 -523 -336 -600 -636 -25 -97 -42 -278
-33 -351 5 -45 8 -50 40 -61 19 -6 36 -9 37 -7 2 1 11 46 20 100 45 269 143
471 280 581 69 54 195 113 297 136 46 11 181 34 299 50 321 45 458 92 588 201
67 55 140 151 171 223 26 61 51 182 51 250 0 86 -40 267 -59 267 -5 0 -18 -28
-31 -62z"/>
<path d="M3286 6589 c-47 -117 -60 -296 -30 -400 48 -163 163 -295 326 -373
152 -72 285 -96 658 -116 377 -20 528 -60 654 -171 89 -79 152 -206 175 -356
6 -39 11 -74 11 -76 0 -3 18 0 40 5 48 13 49 19 19 173 -57 300 -172 475 -374
571 -103 49 -204 72 -445 99 -365 42 -499 77 -639 169 -146 95 -277 272 -340
459 -10 28 -22 52 -28 54 -6 2 -18 -15 -27 -38z"/>
<path d="M7706 6539 c-131 -331 -344 -505 -686 -563 -52 -9 -176 -25 -275 -36
-319 -36 -438 -70 -560 -162 -112 -85 -179 -187 -235 -358 -34 -106 -68 -296
-54 -310 5 -5 24 -12 41 -16 28 -6 33 -3 37 17 40 213 75 298 156 383 53 56
145 111 235 140 91 29 222 45 482 61 380 23 498 46 658 128 154 79 271 228
305 389 25 111 -5 337 -53 402 -12 17 -17 10 -51 -75z"/>
<path d="M3015 6194 c-65 -155 -83 -331 -47 -451 41 -133 133 -232 287 -308
225 -111 481 -145 820 -110 189 20 415 19 513 -1 182 -37 290 -122 338 -266
l16 -48 30 17 c41 24 44 36 23 102 -70 225 -217 345 -483 395 -43 8 -149 19
-237 25 -360 25 -444 33 -535 51 -261 50 -434 156 -562 343 -44 65 -101 183
-118 246 -13 50 -25 52 -45 5z"/>
<path d="M7990 6158 c-115 -317 -319 -493 -651 -562 -102 -21 -218 -33 -449
-46 -107 -6 -242 -18 -300 -26 -299 -43 -466 -170 -535 -409 l-18 -59 33 -28
c35 -29 50 -28 50 1 0 34 61 139 102 176 52 48 145 91 239 112 100 22 338 21
549 -1 192 -21 331 -17 491 14 325 62 530 203 591 403 31 104 23 248 -23 381
-19 55 -39 101 -45 103 -6 2 -21 -25 -34 -59z"/>
<path d="M2786 5509 c-3 -17 -6 -61 -6 -98 0 -239 148 -406 425 -483 70 -19
106 -22 285 -22 235 -1 264 4 548 89 285 86 419 103 545 70 76 -20 122 -44
179 -94 47 -42 47 -42 78 -26 16 8 30 21 30 28 0 42 -116 159 -194 197 -131
62 -293 72 -681 44 -260 -19 -601 -14 -707 10 -159 35 -269 98 -395 224 -52
50 -95 92 -97 92 -2 0 -6 -14 -10 -31z"/>
<path d="M8180 5451 c-121 -127 -258 -203 -425 -237 -103 -21 -375 -28 -565
-15 -91 7 -262 15 -380 18 -244 6 -329 -5 -436 -57 -77 -38 -194 -155 -194
-196 0 -6 15 -18 34 -26 34 -16 34 -16 67 18 19 20 67 52 108 72 69 34 82 37
182 40 129 5 206 -9 439 -78 234 -69 235 -69 345 -85 119 -17 283 -19 392 -4
92 12 236 58 299 95 150 88 234 233 234 405 0 71 -8 129 -19 129 -3 0 -40 -36
-81 -79z"/>
<path d="M5515 5057 c-68 -23 -100 -44 -151 -100 -48 -53 -81 -98 -247 -353
-95 -146 -172 -235 -217 -254 -17 -7 -50 -10 -75 -8 -37 5 -56 15 -108 62
-278 251 -464 372 -634 412 -82 19 -240 15 -413 -12 -78 -12 -172 -17 -290
-17 -186 0 -286 12 -483 59 -60 14 -111 23 -115 19 -4 -4 9 -20 28 -37 209
-183 288 -267 593 -633 314 -376 370 -439 552 -620 243 -243 402 -362 640
-481 195 -97 395 -156 619 -184 176 -22 460 -13 676 21 86 13 323 105 490 190
336 170 571 366 913 759 326 375 399 447 772 755 176 146 226 196 178 181 -64
-19 -286 -27 -738 -24 -386 2 -514 0 -560 -10 -280 -62 -454 -165 -658 -392
-85 -94 -137 -124 -249 -142 -85 -13 -182 -1 -247 29 -137 65 -178 279 -75
393 47 52 107 74 182 67 31 -3 65 -8 76 -13 16 -6 18 -3 11 27 -23 112 -115
228 -222 281 -74 36 -180 47 -248 25z m159 -138 c19 -15 26 -30 26 -55 0 -47
-29 -74 -80 -74 -51 0 -80 27 -80 74 0 41 37 76 80 76 15 0 39 -9 54 -21z"/>
<path d="M8362 3298 c-78 -100 -92 -140 -38 -104 14 9 31 16 39 16 18 0 133
-90 129 -102 -4 -15 -114 -158 -121 -158 -11 0 -114 78 -128 97 -10 12 -9 22
2 44 10 19 12 30 4 35 -13 8 -9 12 -99 -109 -40 -54 -70 -101 -66 -104 4 -4
20 1 35 10 16 9 35 17 41 17 20 0 320 -232 320 -247 0 -8 -5 -24 -11 -35 -6
-12 -7 -24 -2 -29 11 -11 167 196 158 211 -4 6 -17 1 -35 -12 l-30 -22 -52 37
c-29 20 -65 47 -80 59 l-28 23 60 79 c33 43 62 81 65 84 2 3 38 -21 80 -52 76
-57 92 -85 63 -114 -8 -8 -9 -15 -1 -23 7 -7 34 22 91 98 50 67 77 112 72 117
-6 6 -19 1 -33 -12 -13 -12 -28 -22 -33 -22 -6 0 -80 52 -165 116 -160 120
-163 123 -144 182 15 46 -15 20 -93 -80z"/>
<path d="M2511 3309 c-146 -73 -190 -228 -103 -368 42 -70 99 -104 177 -109
53 -4 65 -1 65 10 0 11 -15 17 -51 21 -68 8 -113 38 -140 93 -31 65 -16 110
59 184 135 132 283 143 322 24 13 -40 2 -88 -35 -145 -41 -63 -16 -67 64 -9
74 54 84 68 51 77 -13 4 -24 22 -34 57 -20 68 -84 141 -151 172 -73 35 -145
32 -224 -7z"/>
<path d="M2986 2991 c-4 -6 1 -25 10 -43 l16 -32 -141 -138 c-79 -76 -149
-138 -157 -138 -8 0 -25 7 -38 16 -18 11 -26 12 -31 3 -5 -7 55 -74 155 -174
181 -182 161 -173 239 -102 23 21 39 41 37 46 -3 4 -29 2 -58 -5 -29 -8 -61
-14 -71 -14 -26 0 -127 98 -127 124 0 13 26 47 66 86 l65 65 25 -30 c38 -45
44 -66 28 -104 -25 -60 0 -53 75 23 43 44 69 76 62 80 -6 4 -19 2 -30 -4 -38
-20 -75 -12 -110 24 l-32 33 72 64 71 63 50 -53 51 -52 -6 -65 c-4 -35 -3 -64
1 -64 4 0 28 20 52 45 l45 45 -156 156 c-92 92 -159 152 -163 145z"/>
<path d="M7917 2768 c-62 -57 -95 -94 -89 -100 6 -6 17 -6 30 1 11 6 29 11 40
11 11 0 75 -58 156 -140 l138 -140 -21 -34 c-15 -24 -18 -36 -10 -42 13 -8
207 181 196 192 -3 4 -21 0 -39 -9 -21 -10 -38 -13 -49 -6 -28 15 -264 269
-267 288 -2 10 4 24 13 31 15 13 21 40 8 40 -5 0 -52 -41 -106 -92z"/>
<path d="M4826 2793 c-10 -95 14 -160 75 -205 28 -21 146 -50 316 -76 138 -22
235 -61 295 -119 l36 -35 29 26 c73 70 165 105 370 141 201 35 255 60 295 139
19 38 38 186 24 186 -4 0 -30 -18 -59 -39 -97 -73 -169 -94 -381 -111 -159
-12 -200 -24 -247 -71 l-37 -37 -20 28 c-38 51 -72 61 -325 95 -137 18 -225
47 -296 98 -28 21 -55 37 -60 37 -5 0 -11 -26 -15 -57z"/>
<path d="M3360 2601 c0 -5 7 -22 17 -38 10 -18 14 -39 10 -54 -8 -33 -184
-276 -209 -290 -14 -7 -29 -7 -51 0 -62 22 -45 -7 40 -67 57 -41 90 -59 97
-52 6 6 2 18 -12 33 -33 35 -27 58 31 144 82 119 120 173 123 170 1 -1 8 -111
15 -245 12 -241 13 -243 37 -263 14 -11 28 -16 32 -12 4 4 58 79 120 166 128
180 145 196 190 177 34 -14 49 -8 32 12 -6 8 -44 37 -86 66 -77 54 -104 55
-65 3 18 -24 20 -34 11 -58 -11 -33 -130 -203 -142 -203 -4 0 -10 69 -14 153
-4 83 -9 178 -13 210 -6 59 -6 59 -72 107 -64 48 -91 60 -91 41z"/>
<path d="M7705 2566 c-9 -13 -30 -27 -48 -30 -45 -9 -102 -50 -137 -98 -24
-33 -30 -51 -30 -94 0 -45 5 -59 31 -89 17 -19 48 -40 69 -46 33 -10 50 -8
141 20 56 17 107 31 114 31 7 0 24 -9 39 -21 20 -16 26 -29 26 -59 0 -31 -6
-44 -35 -69 -48 -42 -114 -44 -198 -9 -28 12 -52 17 -57 12 -5 -5 14 -37 47
-77 44 -55 57 -66 69 -56 8 6 14 17 14 24 0 6 19 17 43 24 57 17 137 72 167
118 20 29 25 49 25 99 0 53 -4 67 -25 89 -31 34 -72 55 -103 55 -14 0 -68 -13
-122 -30 -111 -34 -140 -32 -161 14 -20 41 -6 79 38 106 44 26 69 25 140 -7
35 -16 62 -23 68 -17 9 9 -77 133 -92 134 -4 0 -15 -11 -23 -24z"/>
<path d="M3880 2239 c0 -7 11 -22 25 -35 30 -27 34 -12 -69 -229 l-76 -160
-40 2 c-25 1 -40 -3 -40 -10 0 -18 259 -134 328 -147 120 -21 211 21 262 123
54 109 30 225 -64 302 -33 27 -302 165 -322 165 -2 0 -4 -5 -4 -11z m270 -164
c22 -24 25 -35 25 -103 -1 -66 -5 -85 -32 -137 -44 -84 -90 -126 -145 -132
-46 -4 -103 22 -115 53 -3 8 13 54 35 102 22 48 61 131 86 185 l46 97 38 -19
c20 -10 48 -31 62 -46z"/>
<path d="M7127 2204 c-26 -14 -27 -18 -22 -62 12 -104 35 -370 35 -410 0 -31
-6 -49 -23 -66 -47 -47 -16 -47 74 1 49 27 87 53 85 58 -4 11 -6 11 -48 0 -31
-8 -42 8 -52 75 l-6 45 77 42 78 41 50 -43 50 -44 -28 -29 c-16 -17 -25 -32
-20 -35 13 -8 244 113 238 124 -3 5 -21 8 -40 7 -42 -2 -45 1 -245 171 -90 78
-167 141 -170 141 -3 -1 -18 -8 -33 -16z m133 -223 c19 -16 33 -32 30 -34 -19
-17 -114 -57 -120 -50 -4 4 -11 46 -15 92 l-7 85 38 -32 c22 -17 55 -45 74
-61z"/>
<path d="M6791 2037 c-87 -26 -102 -44 -39 -49 l43 -3 3 -154 c1 -85 -1 -158
-6 -163 -5 -5 -55 57 -117 144 -59 84 -109 155 -111 156 -1 2 -19 -1 -38 -8
l-36 -12 -1 -146 c0 -81 -3 -164 -7 -185 l-7 -39 -87 129 c-49 71 -88 134 -88
141 0 7 11 18 25 24 22 10 30 26 15 31 -3 1 -60 -14 -128 -32 -120 -34 -147
-52 -86 -59 42 -5 56 -22 194 -221 123 -176 125 -178 154 -170 16 5 30 10 32
12 2 2 7 87 10 190 4 103 10 187 13 187 3 0 55 -70 116 -155 60 -85 110 -155
111 -155 0 0 15 5 32 11 l30 10 6 107 c23 381 20 360 49 390 47 49 33 53 -82
19z"/>
<path d="M4450 1983 c0 -3 14 -18 31 -33 l31 -26 -47 -174 c-55 -205 -65 -225
-106 -216 -22 4 -29 2 -29 -9 0 -8 2 -15 5 -15 4 0 386 -104 426 -115 11 -4
20 12 37 63 12 38 22 71 22 75 0 18 -29 4 -61 -29 -49 -51 -61 -56 -116 -44
-67 14 -101 29 -107 47 -3 8 4 52 16 99 25 90 28 93 87 73 36 -13 51 -35 51
-78 0 -47 27 -39 40 12 6 23 18 64 26 91 8 27 14 53 14 58 0 17 -23 7 -48 -23
-24 -29 -29 -31 -75 -25 -27 3 -52 8 -55 10 -7 8 41 186 51 186 5 0 34 -7 65
-16 66 -19 98 -49 107 -98 10 -49 32 -46 45 7 6 23 13 50 16 59 3 10 -2 18
-13 22 -90 26 -393 106 -402 106 -6 0 -11 -3 -11 -7z"/>
<path d="M4980 1840 c0 -5 16 -16 35 -24 41 -17 40 2 16 -230 -19 -188 -25
-206 -73 -206 -28 0 -21 -18 10 -24 15 -3 65 -8 112 -11 47 -4 93 -9 103 -11
30 -9 19 23 -13 35 -26 9 -30 15 -30 48 0 69 13 143 24 143 12 0 66 -81 118
-177 l33 -61 90 -9 c98 -9 123 0 72 26 -21 10 -55 51 -99 116 -37 55 -67 104
-67 108 -1 4 7 10 17 13 47 14 82 40 96 69 34 71 10 129 -65 159 -23 9 -105
23 -183 31 -169 17 -196 18 -196 5z m280 -55 c34 -18 45 -49 37 -107 -7 -54
-34 -79 -91 -85 -46 -6 -46 -5 -46 24 0 17 3 64 6 106 7 77 7 77 36 77 16 0
42 -7 58 -15z"/>
<path d="M5820 1833 c-24 -4 -31 -20 -99 -226 -72 -219 -96 -267 -133 -267
-10 0 -18 -7 -18 -16 0 -14 8 -16 53 -10 28 3 73 6 100 6 35 0 47 4 47 15 0 8
-9 15 -19 15 -51 0 -62 26 -41 101 10 35 11 36 72 43 113 11 111 12 141 -50
15 -30 25 -59 22 -64 -3 -5 -19 -11 -36 -15 -16 -4 -29 -11 -27 -17 4 -12 -5
-12 143 -3 86 5 125 11 125 19 0 6 -15 16 -32 21 -31 9 -41 27 -144 230 -61
120 -115 220 -120 220 -5 1 -20 0 -34 -2z m50 -289 c0 -10 -119 -27 -129 -18
-4 4 25 112 41 154 9 24 12 21 48 -50 22 -41 39 -80 40 -86z"/>
</g>
</svg>
