<?xml version="1.0" standalone="no"?>
<!DOCTYPE svg PUBLIC "-//W3C//DTD SVG 20010904//EN"
 "http://www.w3.org/TR/2001/REC-SVG-20010904/DTD/svg10.dtd">
<svg version="1.0" xmlns="http://www.w3.org/2000/svg"
 width="230.000000pt" height="230.000000pt" viewBox="0 0 230.000000 230.000000"
 preserveAspectRatio="xMidYMid meet">

<g transform="translate(0.000000,230.000000) scale(0.100000,-0.100000)"
fill="#000000" stroke="none">
<path d="M1013 2293 c-20 -4 -23 -10 -23 -56 0 -91 5 -97 66 -97 30 0 54 5 54
10 0 6 -20 10 -45 10 -41 0 -45 2 -45 25 0 23 4 25 40 25 22 0 40 5 40 10 0 6
-18 10 -40 10 -32 0 -40 4 -40 19 0 14 10 20 40 25 22 3 40 11 40 16 0 10 -44
11 -87 3z"/>
<path d="M1211 2264 c-44 -56 -8 -134 61 -134 43 0 54 8 61 48 6 31 6 32 -28
32 -39 0 -47 -14 -12 -24 22 -6 22 -7 3 -21 -25 -19 -41 -19 -60 1 -33 32 -11
104 31 104 9 0 24 -7 34 -16 26 -23 43 -14 24 14 -24 33 -87 31 -114 -4z"/>
<path d="M865 2261 c-3 -6 -1 -28 4 -48 16 -57 15 -58 -35 -14 -45 40 -81 54
-72 29 3 -7 13 -44 23 -81 12 -46 21 -65 28 -58 7 7 7 23 -1 49 -18 59 -16 60
32 13 65 -64 80 -53 56 39 -20 78 -25 87 -35 71z"/>
<path d="M1445 2247 c-30 -82 -44 -132 -38 -138 5 -3 29 -13 56 -22 37 -12 47
-13 47 -3 0 7 -15 17 -32 22 -26 8 -33 15 -33 34 0 17 5 24 14 22 58 -13 71
-13 71 -4 0 6 -14 13 -31 17 -31 7 -46 26 -35 44 4 6 21 5 46 -4 32 -11 40
-11 40 -1 0 17 -100 49 -105 33z"/>
<path d="M1617 2110 c-29 -53 -34 -70 -23 -70 8 0 20 9 26 20 23 42 44 22 52
-49 2 -14 9 -27 17 -29 11 -4 13 4 7 37 -5 36 -4 41 13 41 24 0 44 24 39 47
-3 14 -72 72 -88 73 -3 0 -22 -32 -43 -70z m84 20 c24 -13 26 -50 2 -50 -28 1
-54 25 -47 44 7 19 18 20 45 6z"/>
<path d="M512 2104 c-25 -18 -29 -56 -7 -74 12 -10 24 -11 53 -2 43 13 63 2
45 -26 -7 -11 -21 -16 -43 -14 -40 3 -36 -21 4 -26 32 -4 76 30 76 59 0 30
-26 42 -80 35 -41 -5 -50 -4 -50 8 0 16 34 39 43 29 3 -3 14 -2 24 1 15 6 15
8 3 16 -22 14 -43 12 -68 -6z"/>
<path d="M1796 2001 c-41 -53 -47 -71 -25 -71 9 0 89 109 89 122 0 21 -23 3
-64 -51z"/>
<path d="M1059 2030 c-37 -5 -76 -13 -87 -19 -20 -11 -20 -13 -5 -54 9 -23 17
-78 18 -122 1 -44 5 -91 9 -105 6 -22 5 -21 -14 7 -11 17 -25 56 -30 86 -11
67 -31 108 -66 136 -34 26 -34 26 -102 -5 -64 -30 -122 -70 -122 -85 0 -5 17
-26 39 -47 31 -30 41 -48 51 -97 6 -33 20 -72 31 -87 11 -16 16 -28 11 -28
-16 0 -45 39 -76 103 -35 70 -68 98 -116 99 -29 1 -42 -8 -97 -66 -78 -82 -81
-102 -15 -136 37 -20 53 -37 79 -84 17 -33 39 -66 49 -73 17 -12 17 -13 0 -13
-11 0 -33 17 -50 37 -58 69 -86 91 -122 97 -67 13 -101 -31 -145 -188 -10 -39
-19 -83 -19 -98 0 -38 31 -45 69 -17 32 23 45 21 93 -13 15 -11 20 -9 33 10
20 28 52 28 82 0 l23 -21 23 21 c29 28 45 28 73 1 28 -26 51 -19 65 18 43 113
119 197 227 250 73 37 80 38 181 38 101 0 110 -2 181 -36 84 -40 142 -91 194
-172 18 -27 13 -37 -19 -37 -48 0 -120 -34 -166 -79 -60 -59 -89 -144 -89
-266 l0 -82 -102 -12 c-139 -17 -208 -48 -208 -93 0 -26 -11 -23 -62 16 -86
66 -158 210 -158 316 0 37 -4 50 -14 50 -8 0 -27 11 -43 24 -28 24 -29 24 -52
5 -30 -25 -49 -24 -78 3 l-23 21 -23 -21 c-30 -28 -55 -28 -84 0 l-23 22 -31
-23 c-20 -15 -40 -21 -56 -18 l-26 5 6 -100 c3 -55 9 -104 14 -109 5 -5 23 -5
43 1 50 14 129 12 186 -5 59 -17 110 -51 227 -148 143 -119 260 -167 407 -167
165 0 273 50 464 213 100 85 161 111 261 112 44 0 94 -4 111 -8 l32 -8 6 55
c3 31 9 81 12 111 l6 55 -30 -6 c-23 -5 -38 -1 -58 15 -26 20 -53 17 -69 -9
-11 -17 -48 -11 -72 12 l-23 21 -23 -21 c-29 -27 -42 -27 -74 -2 l-25 20 -30
-25 c-16 -14 -33 -23 -38 -20 -5 3 -12 -21 -16 -52 -11 -94 -41 -177 -87 -240
-50 -68 -95 -104 -175 -141 -51 -24 -69 -27 -167 -27 -83 0 -122 5 -157 18
-27 10 -48 22 -48 27 0 4 12 12 28 18 64 26 124 35 233 36 l117 1 6 105 c14
207 52 300 150 367 26 18 51 33 55 33 3 0 14 -18 23 -40 18 -44 36 -50 63 -20
23 26 43 25 72 -2 l23 -21 23 21 c29 27 58 28 82 2 23 -25 37 -25 60 0 23 25
36 25 69 -1 17 -14 33 -18 47 -14 19 6 21 12 16 59 -3 28 -20 91 -39 140 -39
106 -65 131 -122 121 -36 -7 -63 -29 -122 -98 -17 -20 -37 -37 -44 -37 -10 0
-9 5 2 18 9 9 29 42 45 72 23 44 40 61 81 83 29 16 52 31 52 35 0 21 -89 126
-130 155 -48 34 -121 -9 -157 -92 -25 -56 -58 -101 -75 -101 -5 0 -2 7 6 15 9
9 21 35 27 58 25 95 42 128 76 154 l36 27 -37 32 c-21 18 -66 45 -101 60 -62
26 -65 26 -90 10 -38 -25 -62 -70 -74 -138 -6 -33 -20 -74 -32 -92 -11 -17
-17 -22 -13 -11 4 11 8 56 9 100 2 44 10 100 19 124 13 36 14 47 4 58 -11 10
-171 36 -203 32 -5 -1 -40 -5 -76 -9z"/>
<path d="M342 1968 c-7 -7 0 -33 20 -84 29 -72 55 -100 46 -49 -6 30 31 70 59
61 10 -3 24 -2 31 2 13 9 11 11 -94 58 -35 15 -55 19 -62 12z m63 -42 c17 -12
17 -16 5 -31 -13 -16 -15 -16 -27 1 -15 20 -17 44 -5 44 5 0 17 -6 27 -14z"/>
<path d="M1947 1854 c-58 -46 -72 -84 -15 -42 68 52 73 54 63 38 -4 -8 -22
-32 -38 -53 -41 -53 -25 -66 42 -33 28 15 51 23 51 19 0 -4 -19 -24 -42 -43
-61 -53 -31 -57 33 -4 60 49 63 53 50 73 -8 12 -17 11 -58 -7 -26 -11 -50 -19
-52 -17 -2 2 11 23 28 46 23 32 28 46 20 56 -16 19 -18 18 -82 -33z"/>
<path d="M213 1813 c-18 -25 -29 -51 -26 -56 4 -6 12 -2 21 11 l14 22 47 -33
c65 -48 71 -50 71 -33 0 8 -23 31 -51 51 -36 27 -47 41 -40 48 13 13 15 37 4
37 -5 0 -22 -21 -40 -47z"/>
<path d="M130 1668 c0 -7 28 -26 62 -43 81 -40 78 -39 78 -23 0 8 -29 28 -65
46 -74 36 -75 37 -75 20z"/>
<path d="M2092 1642 c-52 -2 -72 -6 -69 -15 2 -7 14 -13 26 -15 31 -5 49 -47
32 -74 -8 -12 -9 -24 -3 -30 12 -12 114 99 110 120 -4 19 -4 19 -96 14z m48
-47 c-25 -27 -40 -25 -40 6 0 15 7 19 32 19 l31 0 -23 -25z"/>
<path d="M77 1542 c-10 -10 -17 -33 -17 -50 0 -26 5 -33 26 -38 22 -6 32 -1
58 31 28 33 33 36 45 21 17 -20 7 -46 -19 -53 -23 -6 -27 -33 -6 -33 20 0 45
27 52 57 16 61 -49 85 -87 34 -13 -17 -29 -31 -36 -31 -20 0 -15 38 7 50 11 6
20 15 20 20 0 16 -26 11 -43 -8z"/>
<path d="M2171 1451 c-36 -9 -67 -23 -69 -30 -3 -10 3 -12 22 -9 14 3 34 -1
43 -8 17 -12 16 -14 -9 -41 -16 -16 -28 -38 -28 -49 1 -15 9 -10 40 25 l40 43
36 -21 c32 -19 35 -19 32 -4 -2 10 -23 29 -48 42 l-45 25 33 10 c17 5 32 15
32 22 0 16 2 17 -79 -5z"/>
<path d="M1220 1445 c-228 -46 -362 -166 -415 -370 -14 -56 -20 -115 -11 -115
2 0 27 16 56 35 33 22 69 37 101 41 58 8 64 16 72 102 11 136 113 233 312 298
l70 23 -60 0 c-33 -1 -89 -7 -125 -14z"/>
<path d="M1363 1380 c-89 -23 -144 -51 -197 -100 -58 -54 -85 -112 -92 -204
-6 -62 -10 -76 -24 -76 -36 0 -121 -32 -150 -56 -23 -20 -30 -34 -30 -60 l0
-34 38 23 c57 36 129 58 215 64 l77 6 0 90 c0 49 5 108 12 130 22 73 106 150
243 221 29 16 29 16 5 15 -14 0 -57 -9 -97 -19z"/>
<path d="M31 1346 c-18 -21 -30 -104 -16 -109 6 -3 42 -8 78 -12 48 -5 67 -4
67 4 0 6 -13 14 -30 18 -41 8 -38 28 10 58 22 14 40 30 40 35 0 15 -11 12 -47
-10 -18 -11 -33 -16 -33 -11 0 14 -30 41 -44 41 -8 0 -19 -6 -25 -14z m47 -44
c5 -36 -4 -51 -27 -45 -21 5 -26 27 -15 58 9 23 38 14 42 -13z"/>
<path d="M2140 1236 c0 -9 6 -16 14 -16 31 0 36 -75 6 -85 -11 -3 -20 -13 -20
-22 0 -8 4 -13 8 -11 182 74 187 82 85 117 -38 12 -74 25 -80 28 -7 2 -13 -2
-13 -11z m119 -52 c7 -6 -2 -12 -32 -19 -23 -6 -27 -4 -27 15 0 19 4 21 27 15
16 -4 30 -9 32 -11z"/>
<path d="M138 1093 c-3 -40 -6 -48 -23 -48 -16 0 -21 8 -23 38 -4 50 -22 48
-22 -3 0 -33 -3 -40 -20 -40 -17 0 -20 7 -20 40 0 30 -4 40 -16 40 -12 0 -15
-6 -10 -22 3 -13 6 -38 6 -56 l0 -33 78 7 c42 4 78 7 79 8 6 5 -11 116 -18
116 -4 0 -9 -21 -11 -47z"/>
<path d="M2148 1020 c-22 -13 -32 -63 -18 -89 7 -13 21 -21 38 -21 21 0 31 8
47 38 11 20 25 36 30 35 18 -3 17 -34 -1 -54 -20 -22 -11 -38 14 -23 12 8 17
25 17 55 0 42 -2 44 -28 44 -21 0 -33 -8 -45 -30 -23 -40 -34 -47 -50 -31 -11
11 -11 18 -3 35 7 11 16 21 21 21 6 0 10 7 10 15 0 17 -8 18 -32 5z"/>
<path d="M30 906 c0 -13 11 -16 60 -16 33 0 60 -4 60 -9 0 -5 -20 -22 -45 -38
-25 -15 -45 -34 -45 -40 0 -21 13 -16 78 32 72 52 74 75 8 75 -22 0 -58 3 -78
6 -31 5 -38 4 -38 -10z"/>
<path d="M2088 823 c-23 -27 -27 -59 -11 -82 20 -29 44 -26 78 9 28 29 55 39
55 21 0 -20 -13 -41 -25 -41 -7 0 -15 -7 -19 -15 -7 -19 27 -21 42 -2 19 22
25 66 12 82 -19 23 -46 18 -73 -15 -28 -33 -57 -40 -57 -12 0 22 11 37 33 45
9 3 17 11 17 17 0 16 -36 11 -52 -7z"/>
<path d="M430 796 c-32 -13 -56 -29 -58 -40 -3 -13 72 -146 82 -146 1 0 21 18
44 39 84 78 144 79 308 3 149 -70 192 -82 309 -89 130 -7 203 10 360 84 179
85 238 84 334 -3 l39 -34 41 63 c22 35 41 71 41 79 0 25 -87 62 -158 66 -76 5
-118 -9 -234 -80 -174 -107 -263 -138 -388 -138 -121 0 -227 36 -366 125 -155
99 -243 117 -354 71z"/>
<path d="M168 737 c-38 -16 -68 -36 -68 -43 0 -18 -2 -19 79 19 44 20 68 36
63 43 -5 7 -29 1 -74 -19z"/>
<path d="M2017 674 c-3 -3 -1 -15 6 -25 16 -26 -13 -74 -44 -74 -12 0 -24 -5
-26 -11 -3 -10 105 -34 151 -34 26 0 18 27 -26 89 -43 60 -50 66 -61 55z m53
-112 c-28 -5 -43 9 -34 32 6 15 9 15 31 -6 l25 -23 -22 -3z"/>
<path d="M212 628 c-70 -45 -75 -74 -6 -33 24 14 44 22 44 17 0 -5 -11 -31
-26 -57 -16 -31 -22 -51 -15 -58 12 -12 131 60 131 80 0 15 -6 13 -53 -20 -16
-10 -30 -17 -33 -14 -3 3 6 27 19 54 22 44 26 74 9 72 -4 0 -35 -18 -70 -41z"/>
<path d="M635 601 c-22 -10 -53 -33 -70 -50 l-30 -32 45 -39 c81 -70 85 -71
134 -17 38 42 48 47 85 47 23 0 88 -12 144 -26 141 -36 264 -36 405 0 151 38
176 36 229 -19 23 -25 48 -45 55 -45 7 0 38 22 68 49 l55 49 -35 37 c-47 49
-86 68 -125 62 -18 -3 -81 -26 -140 -51 -237 -101 -364 -102 -612 -2 -142 57
-159 60 -208 37z"/>
<path d="M1890 493 c0 -4 9 -17 21 -29 29 -31 16 -46 -37 -43 -24 2 -49 -2
-56 -9 -9 -9 -3 -12 30 -12 40 0 42 -1 42 -30 0 -25 21 -50 44 -50 12 0 76 63
76 75 0 14 -94 105 -110 105 -5 0 -10 -3 -10 -7z m80 -88 c10 -13 10 -19 -5
-35 -10 -11 -24 -20 -32 -20 -22 0 -27 29 -8 50 22 24 29 25 45 5z"/>
<path d="M333 442 c-38 -33 -55 -62 -37 -62 3 0 27 18 53 40 49 41 73 45 86
12 4 -10 -10 -31 -41 -63 -31 -31 -42 -49 -34 -54 17 -11 100 74 100 102 0 30
-34 63 -62 63 -13 -1 -42 -18 -65 -38z"/>
<path d="M1057 375 c-50 -19 -97 -53 -97 -70 0 -20 59 -29 190 -29 199 0 232
19 137 78 -38 24 -61 30 -120 32 -46 3 -85 -1 -110 -11z"/>
<path d="M736 193 c-25 -74 -22 -102 16 -117 49 -21 70 -7 95 62 14 40 19 64
12 68 -13 8 -12 9 -35 -56 -14 -40 -25 -56 -40 -58 -36 -5 -46 19 -29 74 17
57 19 74 6 74 -5 0 -16 -21 -25 -47z"/>
<path d="M1517 232 c-16 -3 -17 -11 -12 -60 l6 -57 -30 35 c-17 19 -31 38 -31
42 0 10 -21 10 -37 0 -10 -6 -6 -25 14 -78 32 -83 29 -78 42 -70 7 5 3 25 -10
58 -11 28 -18 52 -16 54 2 2 19 -18 37 -45 44 -64 59 -58 54 22 l-4 62 21 -52
c20 -50 39 -69 39 -40 0 16 -39 120 -48 128 -4 3 -15 4 -25 1z"/>
<path d="M1080 85 c0 -43 4 -75 10 -75 6 0 10 18 10 39 0 58 15 58 46 1 15
-27 33 -50 39 -50 12 0 28 136 18 153 -11 18 -23 -8 -23 -49 0 -24 -4 -44 -8
-44 -5 0 -19 23 -32 50 -16 33 -30 50 -42 50 -16 0 -18 -9 -18 -75z"/>
</g>
</svg>
